# xmcd
#
# Track frame offsets:
#	150
#	19423
#	41955
#	57948
#	77975
#	90111
#	108786
#	120356
#	139332
#	155792
#	169920
#	190739
#	202559
#	217271
#	238109
#	252361
#	265335
#	278090
#	295198
#
# Disc length: 4135 seconds
#
# Revision: 0
# Processed by: cddbd v1.5.1PL2 Copyright (c) Steve Scherf et al.
# Submitted via: EasyCDDAExtractor 9.0.0.1
#
DISCID=15102513
DTITLE=country - compil
DYEAR=1900
DGENRE=Country
TTITLE0=Canadian stomp
TTITLE1=Caastin
TTITLE2=Ridin
TTITLE3=Red of salsa
TTITLE4=Grudy gallop
TTITLE5=Mony mony
TTITLE6=Cowboy slide
TTITLE7=Pizziricco
TTITLE8=Country walkin
TTITLE9=Rose garden
TTITLE10=Gethu Good
TTITLE11=Pic nic polka
TTITLE12=enchantement
TTITLE13=copperead road
TTITLE14=kiss me honey
TTITLE15=texas swing
TTITLE16=just minute
TTITLE17=fly like a bird
TTITLE18=sway
EXTD=
EXTT0=
EXTT1=
EXTT2=
EXTT3=
EXTT4=
EXTT5=
EXTT6=
EXTT7=
EXTT8=
EXTT9=
EXTT10=
EXTT11=
EXTT12=
EXTT13=
EXTT14=
EXTT15=
EXTT16=
EXTT17=
EXTT18=
PLAYORDER=
